<?xml version="1.0" encoding="UTF-8"?>
<svg xmlns="http://www.w3.org/2000/svg" xmlns:xlink="http://www.w3.org/1999/xlink" width="220pt" height="220pt" viewBox="0 0 220 220" version="1.1">
<defs>
<linearGradient id="linear0" gradientUnits="userSpaceOnUse" x1="218.2548" y1="469.2318" x2="218.2548" y2="-27.9283" gradientTransform="matrix(0.501709,0,0,-0.501709,0,220.984604)">
<stop offset="0" style="stop-color:rgb(0%,93.72549%,81.960784%);stop-opacity:1;"/>
<stop offset="1" style="stop-color:rgb(0%,67.45098%,91.764706%);stop-opacity:1;"/>
</linearGradient>
<linearGradient id="linear1" gradientUnits="userSpaceOnUse" x1="282.2548" y1="469.2318" x2="282.2548" y2="-27.9283" gradientTransform="matrix(0.501709,0,0,-0.501709,0,220.984604)">
<stop offset="0" style="stop-color:rgb(0%,93.72549%,81.960784%);stop-opacity:1;"/>
<stop offset="1" style="stop-color:rgb(0%,67.45098%,91.764706%);stop-opacity:1;"/>
</linearGradient>
<linearGradient id="linear2" gradientUnits="userSpaceOnUse" x1="72.8738" y1="469.2318" x2="72.8738" y2="-27.9283" gradientTransform="matrix(0.501709,0,0,-0.501709,0,220.984604)">
<stop offset="0" style="stop-color:rgb(0%,93.72549%,81.960784%);stop-opacity:1;"/>
<stop offset="1" style="stop-color:rgb(0%,67.45098%,91.764706%);stop-opacity:1;"/>
</linearGradient>
<linearGradient id="linear3" gradientUnits="userSpaceOnUse" x1="218.2548" y1="469.2318" x2="218.2548" y2="-27.9283" gradientTransform="matrix(0.501709,0,0,-0.501709,0,220.984604)">
<stop offset="0" style="stop-color:rgb(0%,93.72549%,81.960784%);stop-opacity:1;"/>
<stop offset="1" style="stop-color:rgb(0%,67.45098%,91.764706%);stop-opacity:1;"/>
</linearGradient>
<linearGradient id="linear4" gradientUnits="userSpaceOnUse" x1="72.8738" y1="469.2318" x2="72.8738" y2="-27.9283" gradientTransform="matrix(0.501709,0,0,-0.501709,0,220.984604)">
<stop offset="0" style="stop-color:rgb(0%,93.72549%,81.960784%);stop-opacity:1;"/>
<stop offset="1" style="stop-color:rgb(0%,67.45098%,91.764706%);stop-opacity:1;"/>
</linearGradient>
<linearGradient id="linear5" gradientUnits="userSpaceOnUse" x1="219.2504" y1="469.2318" x2="219.2504" y2="-27.9283" gradientTransform="matrix(0.501709,0,0,-0.501709,0,220.984604)">
<stop offset="0" style="stop-color:rgb(0%,93.72549%,81.960784%);stop-opacity:1;"/>
<stop offset="1" style="stop-color:rgb(0%,67.45098%,91.764706%);stop-opacity:1;"/>
</linearGradient>
<linearGradient id="linear6" gradientUnits="userSpaceOnUse" x1="332.3054" y1="469.2318" x2="332.3054" y2="-27.9283" gradientTransform="matrix(0.501709,0,0,-0.501709,0,220.984604)">
<stop offset="0" style="stop-color:rgb(0%,93.72549%,81.960784%);stop-opacity:1;"/>
<stop offset="1" style="stop-color:rgb(0%,67.45098%,91.764706%);stop-opacity:1;"/>
</linearGradient>
</defs>
<g id="surface1">
<path style=" stroke:none;fill-rule:nonzero;fill:url(#linear0);" d="M 109.5 28.046875 C 106.730469 28.046875 104.484375 30.292969 104.484375 33.0625 L 104.484375 48.351562 C 104.484375 51.121094 106.730469 53.367188 109.5 53.367188 C 112.273438 53.367188 114.519531 51.121094 114.519531 48.351562 L 114.519531 33.0625 C 114.519531 30.292969 112.273438 28.046875 109.5 28.046875 Z M 109.5 28.046875 "/>
<path style=" stroke:none;fill-rule:nonzero;fill:url(#linear1);" d="M 141.609375 28.046875 C 138.839844 28.046875 136.59375 30.292969 136.59375 33.0625 L 136.59375 48.351562 C 136.59375 51.121094 138.839844 53.367188 141.609375 53.367188 C 144.382812 53.367188 146.628906 51.121094 146.628906 48.351562 L 146.628906 33.0625 C 146.628906 30.292969 144.382812 28.046875 141.609375 28.046875 Z M 141.609375 28.046875 "/>
<path style=" stroke:none;fill-rule:nonzero;fill:url(#linear2);" d="M 36.5625 24.4375 C 27.574219 24.4375 20.289062 31.722656 20.292969 40.707031 C 20.292969 49.695312 27.574219 56.976562 36.5625 56.976562 C 45.546875 56.976562 52.832031 49.691406 52.832031 40.707031 C 52.820312 31.726562 45.542969 24.445312 36.5625 24.4375 Z M 36.5625 46.945312 C 33.117188 46.941406 30.324219 44.152344 30.324219 40.707031 C 30.324219 37.261719 33.117188 34.46875 36.5625 34.472656 C 40.007812 34.472656 42.796875 37.261719 42.796875 40.707031 C 42.75 44.132812 39.984375 46.898438 36.5625 46.945312 Z M 36.5625 46.945312 "/>
<path style=" stroke:none;fill-rule:nonzero;fill:url(#linear3);" d="M 114.519531 131.160156 L 114.519531 115.871094 C 114.519531 113.101562 112.273438 110.855469 109.5 110.855469 C 106.730469 110.855469 104.484375 113.101562 104.484375 115.871094 L 104.484375 131.160156 C 104.484375 133.929688 106.730469 136.175781 109.5 136.175781 C 112.273438 136.175781 114.519531 133.929688 114.519531 131.160156 Z M 114.519531 131.160156 "/>
<path style=" stroke:none;fill-rule:nonzero;fill:url(#linear4);" d="M 36.5625 107.246094 C 27.574219 107.246094 20.289062 114.53125 20.292969 123.515625 C 20.292969 132.5 27.574219 139.785156 36.5625 139.785156 C 45.546875 139.785156 52.832031 132.5 52.832031 123.515625 C 52.820312 114.53125 45.542969 107.253906 36.5625 107.246094 Z M 36.5625 129.75 C 33.117188 129.75 30.324219 126.960938 30.324219 123.515625 C 30.324219 120.070312 33.117188 117.277344 36.5625 117.277344 C 40.007812 117.28125 42.796875 120.070312 42.796875 123.515625 C 42.75 126.941406 39.984375 129.707031 36.5625 129.75 Z M 36.5625 129.75 "/>
<path style=" stroke:none;fill-rule:nonzero;fill:url(#linear5);" d="M 169.496094 103.566406 C 165.339844 94.855469 156.515625 89.339844 146.863281 89.421875 L 91.4375 89.421875 L 91.4375 74.871094 L 146.863281 74.871094 C 160.550781 74.910156 171.675781 63.84375 171.714844 50.160156 C 171.714844 50.085938 171.714844 50.011719 171.710938 49.941406 L 171.710938 31.472656 C 171.785156 17.832031 160.789062 6.710938 147.148438 6.636719 C 147.050781 6.636719 146.957031 6.636719 146.863281 6.636719 L 26.054688 6.636719 C 12.378906 6.550781 1.21875 17.5625 1.132812 31.238281 C 1.132812 31.316406 1.132812 31.394531 1.132812 31.472656 L 1.132812 49.9375 C 1.082031 63.660156 12.164062 74.820312 25.886719 74.871094 C 25.941406 74.871094 26 74.871094 26.054688 74.871094 L 81.40625 74.871094 L 81.40625 89.421875 L 26.054688 89.421875 C 12.367188 89.34375 1.207031 100.378906 1.132812 114.066406 C 1.132812 114.136719 1.132812 114.210938 1.132812 114.28125 L 1.132812 132.746094 C 1.085938 146.457031 12.160156 157.605469 25.867188 157.652344 C 25.929688 157.652344 25.992188 157.652344 26.054688 157.652344 L 81.40625 157.652344 L 81.40625 172.027344 C 73.84375 173.863281 67.914062 179.71875 65.980469 187.253906 L 28.4375 187.253906 C 25.625 179.652344 17.183594 175.773438 9.585938 178.582031 C 1.984375 181.394531 -1.894531 189.835938 0.914062 197.4375 C 3.042969 203.191406 8.527344 207.011719 14.664062 207.019531 C 20.984375 207.019531 26.382812 203.308594 28.4375 197.289062 L 65.980469 197.289062 C 68.75 208.597656 80.164062 215.523438 91.472656 212.753906 C 99.105469 210.882812 105.066406 204.921875 106.9375 197.289062 L 132.613281 197.289062 C 141.863281 205.316406 153.761719 209.800781 166.730469 209.800781 C 196.105469 209.800781 220 186.019531 220 156.648438 C 220 128.203125 197.589844 105.007812 169.496094 103.566406 Z M 162.179688 50.289062 C 162.179688 58.601562 155.441406 65.339844 147.128906 65.339844 L 26.21875 65.339844 C 17.902344 65.339844 11.164062 58.601562 11.164062 50.289062 L 11.164062 31.722656 C 11.164062 23.410156 17.902344 16.671875 26.21875 16.671875 L 147.128906 16.671875 C 155.441406 16.671875 162.179688 23.410156 162.179688 31.722656 Z M 11.164062 132.75 L 11.164062 114.28125 C 11.117188 106.140625 17.675781 99.503906 25.816406 99.453125 C 25.894531 99.453125 25.976562 99.453125 26.054688 99.453125 L 146.863281 99.453125 C 151.058594 99.371094 155.09375 101.070312 157.964844 104.128906 C 135.628906 107.84375 117.953125 125.542969 114.203125 147.617188 L 26.054688 147.617188 C 17.894531 147.679688 11.226562 141.117188 11.164062 132.953125 C 11.164062 132.886719 11.164062 132.816406 11.164062 132.75 Z M 113.480469 157.652344 C 113.71875 168.691406 117.332031 179.226562 123.320312 187.253906 L 106.9375 187.253906 C 105.074219 179.726562 98.964844 173.890625 91.4375 172.027344 L 91.4375 157.652344 Z M 14.664062 197.128906 C 12.109375 197.132812 10.039062 195.058594 10.039062 192.507812 C 10.039062 189.953125 12.109375 187.882812 14.664062 187.882812 C 17.214844 187.878906 19.289062 189.949219 19.289062 192.503906 C 19.285156 195.058594 17.214844 197.128906 14.664062 197.128906 Z M 86.457031 203.558594 C 80.355469 203.558594 75.40625 198.609375 75.40625 192.503906 C 75.40625 186.402344 80.355469 181.453125 86.457031 181.453125 C 92.5625 181.453125 97.511719 186.402344 97.511719 192.503906 C 97.574219 198.546875 92.730469 203.496094 86.691406 203.558594 C 86.613281 203.558594 86.535156 203.558594 86.457031 203.558594 Z M 166.730469 199.882812 C 142.855469 199.882812 123.496094 180.527344 123.5 156.648438 C 123.5 132.773438 142.855469 113.414062 166.734375 113.414062 C 190.609375 113.417969 209.964844 132.773438 209.964844 156.648438 C 209.9375 180.515625 190.597656 199.855469 166.730469 199.882812 Z M 166.730469 199.882812 "/>
<path style=" stroke:none;fill-rule:nonzero;fill:url(#linear6);" d="M 184.601562 167.40625 C 187.289062 163.363281 188.722656 158.609375 188.71875 153.753906 C 188.757812 140.003906 177.644531 128.824219 163.894531 128.785156 C 150.144531 128.746094 138.96875 139.859375 138.929688 153.609375 C 138.886719 167.359375 150.003906 178.535156 163.75 178.578125 C 168.632812 178.589844 173.410156 177.167969 177.492188 174.488281 L 185.957031 182.910156 C 187.921875 184.867188 191.097656 184.855469 193.050781 182.894531 C 195.007812 180.929688 195 177.75 193.035156 175.796875 Z M 148.984375 153.753906 C 148.949219 145.550781 155.570312 138.875 163.773438 138.839844 C 171.972656 138.804688 178.652344 145.425781 178.6875 153.625 C 178.722656 161.828125 172.101562 168.503906 163.898438 168.539062 C 163.878906 168.539062 163.855469 168.539062 163.835938 168.539062 C 155.65625 168.546875 149.011719 161.933594 148.984375 153.753906 Z M 148.984375 153.753906 "/>
</g>
</svg>
